# xmcd
#
# Track frame offsets:
#	150
#	12125
#	34842
#	55017
#	71273
#	85221
#	111832
#	129092
#	137627
#	164664
#	178726
#	193684
#	205471
#	217413
#	238781
#	254497
#	262682
#	281692
#	297055
#	313332
#
# Disc length: 4427 seconds
#
# Revision: 0
# Processed by: cddbd v1.5.2PL0 Copyright (c) Steve Scherf et al.
# Submitted via: EasyCDDAExtractor 16.0.6.1
#
DISCID=30114914
DTITLE=Συλλογικός δίσκος - Τα μεγάλα τραγούδια-Μ. Θεοδωράκης 09
DYEAR=2010
DGENRE=Λαϊκή
TTITLE0=Μητσιάς Μανώλης - Κράτησα τη ζωή μου [Γιώργος Σεφέρης]
TTITLE1=Γλυκερία - Άγγελος δραπέτης [Λευτέρης Παπαδόπουλος
TTITLE2=Μακεδόνας Κώστας - Βρέχει στη φτωχογειτονιά [Τάσος Λειβαδίτης]
TTITLE3=Φαραντούρη Μαρία - Γλυκέ μου εσύ, δε χάθηκες [Γιάννης Ρίτσος]
TTITLE4=Βενετσάνου Νένα - Βασίλεψες αστέρι μου [Γιάννης Ρίτσος]
TTITLE5=Πουλόπουλος Γιάννης - Το όνειρο [Μίκης Θεοδωράκης]
TTITLE6=Αρλέτα - Χαμός από αγάπη [Φ. Γ. Λόρκα, απ. Οδ. Ελύτης]
TTITLE7=Ζορμπαλά Μαργαρίτα - Το τριζόνι [Οδυσσέας Ελύτης]
TTITLE8=Πανδής Πέτρος - Το ναυάγιο [Μανόλης Αναγνωστάκης]
TTITLE9=Μπιρμπίλη Σούλα - Τα Ελληνάκια [Οδ. Ελύτης]
TTITLE10=Σταμπογλής Χριστόφορος - Οι στίχοι αυτοί [Μανόλης Αναγνωστάκης]
TTITLE11=Καλογιάννης Αντώνης - Ο Μήτσος [Φώντας Λάδης]
TTITLE12=Καμένος Κώστας - Εδώ το φως [Γιάννης Ρίτσος]
TTITLE13=Δημητριάδη Μαρία - Μήπως ζούμε σ' άλλη χώρα - [Μάνος Ελευθερίου]
TTITLE14=Ζορμπαλά Μαργαρίτα-Μπογδάνος Γιάννης - Στη νύχτα σου δοσμένος [Κώστας
TTITLE14=Τριπολίτης]
TTITLE15=Μάνου Αφροδίτη - Χθες στη Βιλχελμστράσε [Φώντας Λάδης]
TTITLE16=Ζορμπαλά Μαργαρίτα - Αγάπη δίχως άκρη [Νίκος Γκάτσος]
TTITLE17=Παπά Ειρήνη - Το μοιρολόϊ της Ηλέκτρας [Μίκης Θεοδωράκης]
TTITLE18=Μούτσιος Γιώργος - Είχα φυτέψει μιά καρδιά [Νίκος Γκάτσος]
TTITLE19=Άνευ ερμηνευτού - Οι χαρταετοί [οργανικό]
EXTD=
EXTT0=
EXTT1=
EXTT2=
EXTT3=
EXTT4=
EXTT5=
EXTT6=
EXTT7=
EXTT8=
EXTT9=
EXTT10=
EXTT11=
EXTT12=
EXTT13=
EXTT14=
EXTT15=
EXTT16=
EXTT17=
EXTT18=
EXTT19=
PLAYORDER=
